<svg xmlns="http://www.w3.org/2000/svg" viewBox="0 0 400 400">
  <defs>
    <radialGradient id="cwg" cx="0" cy="0" r="1" gradientUnits="userSpaceOnUse" gradientTransform="translate(0,0) scale(400)">
      <stop offset="0%" stop-color="#ffffff" stop-opacity="0.5"/>
      <stop offset="100%" stop-color="#ffffff" stop-opacity="0.1"/>
    </radialGradient>
  </defs>

  <!-- Radial threads from corner -->
  <line x1="0" y1="0" x2="400" y2="0" stroke="url(#cwg)" stroke-width="1"/>
  <line x1="0" y1="0" x2="400" y2="80" stroke="url(#cwg)" stroke-width="1"/>
  <line x1="0" y1="0" x2="380" y2="170" stroke="url(#cwg)" stroke-width="1"/>
  <line x1="0" y1="0" x2="340" y2="260" stroke="url(#cwg)" stroke-width="1"/>
  <line x1="0" y1="0" x2="280" y2="340" stroke="url(#cwg)" stroke-width="1"/>
  <line x1="0" y1="0" x2="200" y2="390" stroke="url(#cwg)" stroke-width="1"/>
  <line x1="0" y1="0" x2="100" y2="400" stroke="url(#cwg)" stroke-width="1"/>
  <line x1="0" y1="0" x2="0" y2="400" stroke="url(#cwg)" stroke-width="1"/>

  <!-- Concentric web arcs (closest to corner) -->
  <path d="M 50 0 Q 50 20 48 40 Q 44 50 38 58 Q 30 66 20 70 Q 10 74 0 75" fill="none" stroke="#fff" stroke-width="0.8" opacity="0.35"/>

  <path d="M 110 0 Q 108 45 100 85 Q 90 110 72 130 Q 55 148 35 158 Q 18 166 0 170" fill="none" stroke="#fff" stroke-width="0.8" opacity="0.3"/>

  <path d="M 180 0 Q 176 70 160 135 Q 142 180 115 215 Q 88 245 58 265 Q 30 280 0 290" fill="none" stroke="#fff" stroke-width="0.8" opacity="0.25"/>

  <path d="M 270 0 Q 264 100 240 195 Q 215 265 175 315 Q 130 355 80 375 Q 40 390 0 395" fill="none" stroke="#fff" stroke-width="0.7" opacity="0.2"/>

  <path d="M 370 0 Q 360 140 320 270 Q 280 355 220 395 Q 160 400 100 400" fill="none" stroke="#fff" stroke-width="0.6" opacity="0.15"/>

  <!-- Small dewdrop highlights -->
  <circle cx="50" cy="20" r="1.5" fill="#fff" opacity="0.4"/>
  <circle cx="105" cy="50" r="1.2" fill="#fff" opacity="0.35"/>
  <circle cx="80" cy="110" r="1.5" fill="#fff" opacity="0.3"/>
  <circle cx="45" cy="155" r="1.2" fill="#fff" opacity="0.35"/>
  <circle cx="155" cy="95" r="1" fill="#fff" opacity="0.25"/>
  <circle cx="130" cy="185" r="1.3" fill="#fff" opacity="0.2"/>
  <circle cx="60" cy="255" r="1.2" fill="#fff" opacity="0.2"/>
  <circle cx="220" cy="155" r="1" fill="#fff" opacity="0.15"/>
</svg>
